<?xml version="1.0" encoding="utf-8"?>
<svg viewBox="0 0 64 64" xmlns="http://www.w3.org/2000/svg">
  <defs>
    <linearGradient gradientUnits="userSpaceOnUse" x1="32" y1="4.171" x2="32" y2="59.829" id="gradient-0">
      <stop offset="0" style="stop-color: rgba(62, 142, 208, 1)"/>
      <stop offset="1" style="stop-color: rgb(148, 8, 97);"/>
    </linearGradient>
  </defs>
  <path d="M 32.064 10.603 L 32.064 8.482 M 32.064 56.15 L 32.064 54.029 M 53.634 32.264 L 55.755 32.264 M 8.346 32.264 L 10.467 32.264 M 15.304 15.313 L 16.762 16.853 M 47.415 47.493 L 48.873 49.033 M 48.914 15.336 L 47.489 16.907 M 16.717 47.519 L 15.292 49.09 M 55.821 32.177 C 55.821 45.378 45.119 56.079 31.918 56.079 C 18.717 56.079 8.016 45.378 8.016 32.177 C 8.016 18.976 18.717 8.275 31.918 8.275 C 45.119 8.275 55.821 18.976 55.821 32.177 Z M 59.898 32 C 59.898 47.37 47.408 59.829 32 59.829 C 16.593 59.829 4.102 47.37 4.102 32 C 4.102 16.631 16.593 4.171 32 4.171 C 47.408 4.171 59.898 16.631 59.898 32 Z M 31.967 20.668 L 31.967 47.009 M 29.762 21.891 L 31.98 19.692 M 34.195 21.891 L 31.977 19.692 M 32.05 47.871 L 34.267 45.671 M 32.052 47.871 L 29.834 45.671 M 18.646 35.365 C 21.028 38.051 22.578 40.529 22.89 43.401 L 25.946 43.401 C 30.024 36.267 36.68 27.939 45.245 23.706 L 42.472 20.933 C 35.152 25.297 28.231 32.134 24.984 37.855 C 24.339 35.929 22.836 33.748 20.796 32.479 L 18.646 35.365 Z" style="stroke-linecap: round; fill: none; stroke-width: 2px; stroke: url(#gradient-0);"/>
</svg>