<?xml version="1.0" encoding="UTF-8" standalone="no"?>
<svg
   viewBox="4.542 -77.711 501.008 90.256"
   version="1.1"
   id="svg4"
   sodipodi:docname="vt3.svg"
   inkscape:version="1.1.1 (3bf5ae0d25, 2021-09-20)"
   xmlns:inkscape="http://www.inkscape.org/namespaces/inkscape"
   xmlns:sodipodi="http://sodipodi.sourceforge.net/DTD/sodipodi-0.dtd"
   xmlns="http://www.w3.org/2000/svg"
   xmlns:svg="http://www.w3.org/2000/svg">
  <defs
     id="defs8">
    <filter
       inkscape:label="Cracked Lava"
       inkscape:menu="Materials"
       inkscape:menu-tooltip="A volcanic texture, a little like leather"
       style="color-interpolation-filters:sRGB;"
       id="filter1185"
       x="-0.049487435"
       y="-0.41322014"
       width="1.1038266"
       height="1.8669521">
      <feGaussianBlur
         result="result0"
         in="SourceGraphic"
         stdDeviation="0.5"
         id="feGaussianBlur1153" />
      <feTurbulence
         baseFrequency="0.042"
         seed="488"
         numOctaves="7"
         result="result1"
         id="feTurbulence1155" />
      <feDisplacementMap
         result="result5"
         xChannelSelector="R"
         scale="0"
         in2="result1"
         in="result1"
         yChannelSelector="G"
         id="feDisplacementMap1157" />
      <feComposite
         result="result2"
         operator="in"
         in2="result5"
         in="result0"
         id="feComposite1159" />
      <feSpecularLighting
         lighting-color="rgb(255,230,136)"
         surfaceScale="2"
         result="result4"
         specularConstant="2"
         specularExponent="65"
         in="result2"
         id="feSpecularLighting1163">
        <feDistantLight
           elevation="62"
           azimuth="225"
           id="feDistantLight1161" />
      </feSpecularLighting>
      <feComposite
         k1="2.5"
         k3="1"
         k2="-0.5"
         in2="result2"
         in="result4"
         operator="arithmetic"
         result="result91"
         id="feComposite1165" />
      <feBlend
         result="fbSourceGraphic"
         mode="multiply"
         in2="result91"
         id="feBlend1167" />
      <feColorMatrix
         values="1 0 0 -1 0 1 0 1 -1 0 1 0 0 -1 0 -2 -0.5 0 5 -2"
         in="fbSourceGraphic"
         result="fbSourceGraphicAlpha"
         id="feColorMatrix1169" />
      <feGaussianBlur
         stdDeviation="8"
         in="fbSourceGraphicAlpha"
         result="result0"
         id="feGaussianBlur1171" />
      <feOffset
         dx="2"
         dy="2"
         in="result0"
         result="result3"
         id="feOffset1173" />
      <feSpecularLighting
         in="result0"
         result="result1"
         lighting-color="rgb(255,255,255)"
         surfaceScale="4"
         specularConstant="0.8"
         specularExponent="15"
         id="feSpecularLighting1177">
        <fePointLight
           x="-5000"
           y="-10000"
           z="20000"
           id="fePointLight1175" />
      </feSpecularLighting>
      <feComposite
         in2="fbSourceGraphicAlpha"
         in="result1"
         result="result2"
         operator="in"
         id="feComposite1179" />
      <feComposite
         in="fbSourceGraphic"
         result="result4"
         operator="arithmetic"
         k2="2"
         k3="2"
         in2="result2"
         id="feComposite1181" />
      <feBlend
         mode="darken"
         in2="result4"
         id="feBlend1183" />
    </filter>
    <filter
       inkscape:label="Cracked Lava"
       inkscape:menu="Materials"
       inkscape:menu-tooltip="A volcanic texture, a little like leather"
       style="color-interpolation-filters:sRGB;"
       id="filter1249"
       x="-0.40928794"
       y="-0.39714787"
       width="1.8508033"
       height="1.8255671">
      <feGaussianBlur
         result="result0"
         in="SourceGraphic"
         stdDeviation="0.5"
         id="feGaussianBlur1217" />
      <feTurbulence
         baseFrequency="0.042"
         seed="488"
         numOctaves="7"
         result="result1"
         id="feTurbulence1219" />
      <feDisplacementMap
         result="result5"
         xChannelSelector="R"
         scale="0"
         in2="result1"
         in="result1"
         yChannelSelector="G"
         id="feDisplacementMap1221" />
      <feComposite
         result="result2"
         operator="in"
         in2="result5"
         in="result0"
         id="feComposite1223" />
      <feSpecularLighting
         lighting-color="rgb(255,230,136)"
         surfaceScale="2"
         result="result4"
         specularConstant="2"
         specularExponent="65"
         in="result2"
         id="feSpecularLighting1227">
        <feDistantLight
           elevation="62"
           azimuth="225"
           id="feDistantLight1225" />
      </feSpecularLighting>
      <feComposite
         k1="2.5"
         k3="1"
         k2="-0.5"
         in2="result2"
         in="result4"
         operator="arithmetic"
         result="result91"
         id="feComposite1229" />
      <feBlend
         result="fbSourceGraphic"
         mode="multiply"
         in2="result91"
         id="feBlend1231" />
      <feColorMatrix
         values="1 0 0 -1 0 1 0 1 -1 0 1 0 0 -1 0 -2 -0.5 0 5 -2"
         in="fbSourceGraphic"
         result="fbSourceGraphicAlpha"
         id="feColorMatrix1233" />
      <feGaussianBlur
         stdDeviation="8"
         in="fbSourceGraphicAlpha"
         result="result0"
         id="feGaussianBlur1235" />
      <feOffset
         dx="2"
         dy="2"
         in="result0"
         result="result3"
         id="feOffset1237" />
      <feSpecularLighting
         in="result0"
         result="result1"
         lighting-color="rgb(255,255,255)"
         surfaceScale="4"
         specularConstant="0.8"
         specularExponent="15"
         id="feSpecularLighting1241">
        <fePointLight
           x="-5000"
           y="-10000"
           z="20000"
           id="fePointLight1239" />
      </feSpecularLighting>
      <feComposite
         in2="fbSourceGraphicAlpha"
         in="result1"
         result="result2"
         operator="in"
         id="feComposite1243" />
      <feComposite
         in="fbSourceGraphic"
         result="result4"
         operator="arithmetic"
         k2="2"
         k3="2"
         in2="result2"
         id="feComposite1245" />
      <feBlend
         mode="darken"
         in2="result4"
         id="feBlend1247" />
    </filter>
    <filter
       inkscape:label="Black Hole"
       inkscape:menu="Morphology"
       inkscape:menu-tooltip="Creates a black light inside and outside"
       height="1.4861413"
       width="1.0582205"
       y="-0.24307067"
       x="-0.029110256"
       style="color-interpolation-filters:sRGB;"
       id="filter2697">
      <feGaussianBlur
         stdDeviation="5"
         in="SourceAlpha"
         result="result1"
         id="feGaussianBlur2685" />
      <feComposite
         operator="arithmetic"
         k2="3.2"
         k1="-1"
         k4="-2"
         result="result3"
         in2="result1"
         id="feComposite2687" />
      <feColorMatrix
         values="1 0 0 0 0 0 1 0 0 0 0 0 1 0 0 0 0 0 10 0 "
         result="result2"
         id="feColorMatrix2689" />
      <feComposite
         result="fbSourceGraphic"
         in="SourceGraphic"
         operator="out"
         in2="result2"
         id="feComposite2691" />
      <feBlend
         mode="multiply"
         in="result1"
         in2="fbSourceGraphic"
         result="result91"
         id="feBlend2693" />
      <feBlend
         mode="screen"
         in="fbSourceGraphic"
         in2="result91"
         id="feBlend2695" />
    </filter>
    <filter
       inkscape:label="Black Hole"
       inkscape:menu="Morphology"
       inkscape:menu-tooltip="Creates a black light inside and outside"
       height="1.5316152"
       width="1.5478657"
       y="-0.26580766"
       x="-0.27393287"
       style="color-interpolation-filters:sRGB;"
       id="filter3788">
      <feGaussianBlur
         stdDeviation="5"
         in="SourceAlpha"
         result="result1"
         id="feGaussianBlur3776" />
      <feComposite
         operator="arithmetic"
         k2="3.2"
         k1="-1"
         k4="-2"
         result="result3"
         in2="result1"
         id="feComposite3778" />
      <feColorMatrix
         values="1 0 0 0 0 0 1 0 0 0 0 0 1 0 0 0 0 0 10 0 "
         result="result2"
         id="feColorMatrix3780" />
      <feComposite
         result="fbSourceGraphic"
         in="SourceGraphic"
         operator="out"
         in2="result2"
         id="feComposite3782" />
      <feBlend
         mode="multiply"
         in="result1"
         in2="fbSourceGraphic"
         result="result91"
         id="feBlend3784" />
      <feBlend
         mode="screen"
         in="fbSourceGraphic"
         in2="result91"
         id="feBlend3786" />
    </filter>
    <filter
       x="-0.27393287"
       width="1.5478657"
       y="-0.26580766"
       height="1.5316152"
       inkscape:menu="Non-Realistic 3D Shaders"
       inkscape:menu-tooltip="Aluminium effect with sharp brushed reflections"
       inkscape:label="Aluminium"
       style="color-interpolation-filters:sRGB"
       id="filter4602">
      <feGaussianBlur
         result="result8"
         stdDeviation="5"
         in="SourceGraphic"
         id="feGaussianBlur4582" />
      <feComposite
         operator="xor"
         in2="SourceGraphic"
         result="result22"
         id="feComposite4584" />
      <feComposite
         k2="1"
         operator="arithmetic"
         result="result20"
         in2="result22"
         in="result22"
         id="feComposite4586" />
      <feComposite
         in2="result22"
         in="result20"
         operator="over"
         result="result6"
         id="feComposite4588" />
      <feOffset
         in="result6"
         result="result21"
         id="feOffset4590" />
      <feDisplacementMap
         in2="result20"
         result="result4"
         scale="100"
         yChannelSelector="A"
         xChannelSelector="A"
         in="result21"
         id="feDisplacementMap4592" />
      <feComposite
         in2="SourceGraphic"
         k1="1"
         operator="arithmetic"
         result="fbSourceGraphic"
         k3="0.5"
         in="result4"
         id="feComposite4594" />
      <feComposite
         in2="result4"
         result="result12"
         operator="in"
         in="fbSourceGraphic"
         id="feComposite4596" />
      <feComposite
         in2="SourceGraphic"
         operator="in"
         result="result18"
         id="feComposite4598" />
      <feComposite
         result="result19"
         in2="SourceGraphic"
         operator="in"
         in="result18"
         id="feComposite4600" />
    </filter>
    <filter
       inkscape:label="In and Out"
       inkscape:menu="Shadows and Glows"
       inkscape:menu-tooltip="Inner colorized shadow, outer black shadow"
       style="color-interpolation-filters:sRGB;"
       id="filter5898"
       x="-0.23525999"
       y="-0.22828188"
       width="1.5510885"
       height="1.5347424">
      <feGaussianBlur
         result="result0"
         in="SourceAlpha"
         stdDeviation="4"
         id="feGaussianBlur5892" />
      <feOffset
         dx="5"
         dy="5"
         result="result4"
         id="feOffset5894" />
      <feComposite
         in="SourceGraphic"
         in2="result4"
         operator="xor"
         result="result3"
         id="feComposite5896" />
    </filter>
    <filter
       inkscape:label="Black Hole"
       inkscape:menu="Morphology"
       inkscape:menu-tooltip="Creates a black light inside and outside"
       height="27.912302"
       width="3.1612899"
       y="-13.956065"
       x="-1.080645"
       style="color-interpolation-filters:sRGB;"
       id="filter6054">
      <feGaussianBlur
         stdDeviation="5"
         in="SourceAlpha"
         result="result1"
         id="feGaussianBlur6042" />
      <feComposite
         operator="arithmetic"
         k2="3.2"
         k1="-1"
         k4="-2"
         result="result3"
         in2="result1"
         id="feComposite6044" />
      <feColorMatrix
         values="1 0 0 0 0 0 1 0 0 0 0 0 1 0 0 0 0 0 10 0 "
         result="result2"
         id="feColorMatrix6046" />
      <feComposite
         result="fbSourceGraphic"
         in="SourceGraphic"
         operator="out"
         in2="result2"
         id="feComposite6048" />
      <feBlend
         mode="multiply"
         in="result1"
         in2="fbSourceGraphic"
         result="result91"
         id="feBlend6050" />
      <feBlend
         mode="screen"
         in="fbSourceGraphic"
         in2="result91"
         id="feBlend6052" />
    </filter>
  </defs>
  <sodipodi:namedview
     id="namedview6"
     pagecolor="#ffffff"
     bordercolor="#666666"
     borderopacity="1.0"
     inkscape:pageshadow="2"
     inkscape:pageopacity="0.0"
     inkscape:pagecheckerboard="0"
     showgrid="false"
     inkscape:zoom="1.5736756"
     inkscape:cx="230.0347"
     inkscape:cy="134.71646"
     inkscape:window-width="1920"
     inkscape:window-height="1056"
     inkscape:window-x="0"
     inkscape:window-y="0"
     inkscape:window-maximized="1"
     inkscape:current-layer="svg4" />
  <path
     id="path3822"
     style="stroke-linejoin:round;stroke-linecap:round;paint-order:fill;stroke-width:10px;stroke:#ffffff;fill:none;stroke-opacity:1;filter:url(#filter5898)"
     transform="translate(-3.59215,-106.29635)"
     d="m 17.234,50.935 c 12.917,-13.425 48.738,-13.319 61.628,0 M 48.208,104.713 C 48.276,88.644 32.564,68.724 17.158,69.156 m 31.01,35.706 C 48.1,88.792 63.813,68.873 79.217,69.305 M 48.038,104.467 47.95,41.985" />
  <g
     aria-label="VersionTracker"
     transform="matrix(1, 0, 0, 1, -3.59215, -106.296351)"
     id="text55"
     style="font-weight:bold;font-size:72px;font-family:TSCu_Comic;-inkscape-font-specification:'TSCu_Comic, Bold';white-space:pre;fill:#ffffff;stroke:#000000;stroke-width:0px;stroke-linecap:round;stroke-linejoin:round;filter:url(#filter6054)">
    <path
       d="m 127.68331,63.81672 q 0,8.095522 -5.30149,19.128358 -3.0806,6.519403 -8.81194,14.614926 -7.66567,10.746266 -11.67761,10.746266 -1.28955,0 -2.36418,-4.72836 L 94.871374,82.371944 q -0.573135,-2.507463 -2.865672,-9.313433 -2.79403,-8.597015 -2.79403,-9.958209 0,-1.21791 0.78806,-2.077612 0.78806,-0.859701 2.00597,-0.859701 1.719403,0 2.435821,2.220895 2.507463,7.379105 5.659697,19.056717 1.64777,6.232835 3.0806,13.182089 l 1.00299,4.943284 q 8.66865,-8.955224 12.96716,-18.125373 3.9403,-8.310448 5.08657,-18.197015 0,-1.217911 0.93134,-1.934329 0.93134,-0.788059 2.07761,-0.788059 2.43582,0 2.43582,3.295522 z"
       style="font-weight:bold;font-size:72px;font-family:TSCu_Comic;-inkscape-font-specification:'TSCu_Comic, Bold';white-space:pre;fill:#ffffff;stroke:#000000;stroke-width:0px;stroke-linecap:round;stroke-linejoin:round;filter:url(#filter6054)"
       id="path892" />
    <path
       d="m 156.62658,102.07344 q 0,2.65074 -6.59104,4.8 -5.44478,1.7194 -8.95523,1.7194 -11.24776,0 -11.24776,-9.814926 0,-6.304478 4.29851,-11.462686 4.87164,-5.946269 12.03582,-5.946269 4.58507,0 7.3791,1.862686 2.79403,1.862687 2.79403,4.226866 0,4.298508 -8.45373,8.668657 -7.09254,3.653731 -9.67164,3.653731 -2.00597,0 -2.00597,-2.435821 0,-0.788059 7.52239,-3.868656 7.59403,-3.152239 7.59403,-5.229851 0,-0.859702 -1.14627,-1.57612 -1.28955,-0.501492 -4.01194,-0.501492 -5.37314,0 -8.52537,3.797015 -2.86568,3.510448 -2.86568,8.668657 0,2.507459 1.43284,3.868659 1.43284,1.36119 4.58507,1.36119 3.58209,0 6.66269,-1.43283 l 6.87761,-3.223885 q 2.29254,0 2.29254,2.865675 z"
       style="font-weight:bold;font-size:72px;font-family:TSCu_Comic;-inkscape-font-specification:'TSCu_Comic, Bold';white-space:pre;fill:#ffffff;stroke:#000000;stroke-width:0px;stroke-linecap:round;stroke-linejoin:round;filter:url(#filter6054)"
       id="path894" />
    <path
       d="m 186.2862,84.091347 q 0,2.00597 -1.28955,2.579104 -0.8597,0.429851 -2.72239,0.429851 -6.59104,0 -12.32238,4.656717 -4.29851,3.438806 -5.22985,6.304477 l -1.28956,8.525374 q -0.28656,1.86269 -2.65074,1.86269 -2.2209,0 -2.57911,-2.43582 l 3.65373,-21.922393 q 0.35821,-2.292537 2.50747,-2.292537 2.50746,0 2.50746,2.722388 l -0.64478,4.01194 q 3.9403,-3.653731 7.37911,-4.871642 4.37015,-1.576119 9.95821,-1.576119 2.72238,0 2.72238,2.00597 z"
       style="font-weight:bold;font-size:72px;font-family:TSCu_Comic;-inkscape-font-specification:'TSCu_Comic, Bold';white-space:pre;fill:#ffffff;stroke:#000000;stroke-width:0px;stroke-linecap:round;stroke-linejoin:round;filter:url(#filter6054)"
       id="path896" />
    <path
       d="m 208.9966,84.664481 q 0,1.217911 -0.64477,2.077612 -0.78806,1.002985 -1.86269,1.002985 -0.50149,0 -3.29552,-1.074627 -2.72239,-1.146268 -4.65672,-1.146268 -3.22388,0 -3.4388,2.077612 0,1.647761 3.51044,3.22388 5.87463,2.650747 6.51941,3.080597 3.51044,2.220896 3.51044,5.516418 0,5.08657 -3.4388,7.3791 -2.43582,1.64777 -6.08955,1.64777 -5.80299,0 -8.23881,-0.93135 -2.43582,-0.93134 -2.43582,-2.50746 0,-2.50746 2.14925,-2.93731 l 3.79702,1.07462 q 1.50448,0.42985 3.72537,0.42985 5.30149,0 5.30149,-3.51044 0,-1.647765 -3.4388,-3.43881 -6.08955,-3.008955 -6.44776,-3.295522 -3.51045,-2.364179 -3.51045,-5.444776 0,-3.510448 3.15224,-5.373134 2.5791,-1.432836 6.37612,-1.432836 2.5791,0 5.44477,0.788059 4.01194,1.002985 4.01194,2.79403 z"
       style="font-weight:bold;font-size:72px;font-family:TSCu_Comic;-inkscape-font-specification:'TSCu_Comic, Bold';white-space:pre;fill:#ffffff;stroke:#000000;stroke-width:0px;stroke-linecap:round;stroke-linejoin:round;filter:url(#filter6054)"
       id="path898" />
    <path
       d="m 223.25326,74.348063 q 0,2.364179 -2.00597,3.080597 -0.57313,0.214926 -1.43284,0.214926 -1.36119,0 -2.29253,-0.859702 -0.93135,-0.859701 -0.93135,-2.435821 0,-3.295522 3.22388,-3.295522 1.43284,0 2.50747,0.78806 0.93134,1.002985 0.93134,2.507462 z m -2.5791,9.743284 q 0,1.289552 -0.42985,4.083582 l -3.00896,18.268661 q 0,0.93134 -0.93134,1.50447 -0.8597,0.64478 -1.79105,0.64478 -2.07761,0 -2.36418,-2.43582 l 0.5015,-3.51045 3.15223,-18.698507 q 0.35821,-2.00597 2.57911,-2.00597 2.29254,0 2.29254,2.149254 z"
       style="font-weight:bold;font-size:72px;font-family:TSCu_Comic;-inkscape-font-specification:'TSCu_Comic, Bold';white-space:pre;fill:#ffffff;stroke:#000000;stroke-width:0px;stroke-linecap:round;stroke-linejoin:round;filter:url(#filter6054)"
       id="path900" />
    <path
       d="m 252.05323,92.473436 q 0,6.662687 -4.29851,11.104474 -4.29851,4.4418 -11.67761,4.4418 -5.51642,0 -8.52538,-3.79702 -2.5791,-3.29552 -2.5791,-8.597015 0,-5.444776 4.01194,-9.528358 4.58508,-4.728358 11.8209,-4.728358 5.44477,0 8.59701,3.653731 2.65075,3.152239 2.65075,7.450746 z m -4.87164,0.859702 q 0,-2.650746 -1.57612,-4.656716 -1.93433,-2.36418 -5.80299,-2.36418 -4.08358,0 -7.02089,3.008956 -2.57911,2.650746 -2.57911,6.01791 0,7.522392 6.87761,7.522392 4.15523,0 7.09254,-2.865675 3.00896,-2.865672 3.00896,-6.662687 z"
       style="font-weight:bold;font-size:72px;font-family:TSCu_Comic;-inkscape-font-specification:'TSCu_Comic, Bold';white-space:pre;fill:#ffffff;stroke:#000000;stroke-width:0px;stroke-linecap:round;stroke-linejoin:round;filter:url(#filter6054)"
       id="path902" />
    <path
       d="m 281.85618,91.470451 q 0,3.510448 -0.8597,7.307463 -0.28656,1.217911 -1.00298,3.725376 -0.64478,2.50746 -1.28955,4.01194 -0.85971,1.93433 -2.14926,1.93433 -2.86567,0 -2.86567,-2.57911 1.21791,-4.15522 1.93433,-7.522387 0.93134,-4.370149 0.93134,-7.594029 0,-3.653732 -1.79104,-3.653732 -2.07761,0 -8.09552,4.01194 -6.08956,4.011941 -6.37612,5.802986 l -1.57612,9.528362 q -0.35821,2.00597 -2.65075,2.00597 -2.43582,0 -2.43582,-2.43582 l 3.79701,-22.925378 q 0.28657,-2.00597 2.79403,-2.00597 0.85971,0 1.64777,0.931343 0.57313,0.501493 0.57313,1.361194 v 0.286567 l -0.71642,4.728358 q 9.02687,-6.877612 15.2597,-6.877612 1.79105,0 3.29553,2.722389 1.57611,2.650746 1.57611,7.23582 z"
       style="font-weight:bold;font-size:72px;font-family:TSCu_Comic;-inkscape-font-specification:'TSCu_Comic, Bold';white-space:pre;fill:#ffffff;stroke:#000000;stroke-width:0px;stroke-linecap:round;stroke-linejoin:round;filter:url(#filter6054)"
       id="path904" />
    <path
       d="m 325.48594,61.954034 q 0,2.650746 -3.22388,3.438805 -1.07463,0.214926 -5.3015,0.501493 -3.86865,0.214925 -9.17014,0.214925 l -0.35821,5.086568 q -0.42985,5.444776 -1.79105,13.755223 -1.28955,7.737314 -2.36418,12.537314 -0.57313,2.579108 -1.86268,8.095518 -0.28657,1.3612 -1.07463,1.86269 -1.00299,0.57314 -2.2209,0.57314 -0.8597,0 -1.50447,-0.93135 -0.5015,-1.00298 -0.5015,-2.07761 1.14627,-5.086567 2.79403,-14.471642 1.86269,-10.746269 3.36717,-24 -6.80597,0 -9.02687,0.286567 l -5.6597,0.716418 q -1.43284,0 -2.14925,-0.859701 -0.71642,-0.859702 -0.71642,-1.57612 v -0.143283 q 0,-0.859702 0.64477,-1.862687 0.78806,-0.931343 2.07762,-1.002985 l 35.46268,-2.579104 q 1.00299,-0.07164 1.79105,0.573134 0.64477,0.716418 0.78806,1.862687 z"
       style="font-weight:bold;font-size:72px;font-family:TSCu_Comic;-inkscape-font-specification:'TSCu_Comic, Bold';white-space:pre;fill:#ffffff;stroke:#000000;stroke-width:0px;stroke-linecap:round;stroke-linejoin:round;filter:url(#filter6054)"
       id="path906" />
    <path
       d="m 355.14552,84.091347 q 0,2.00597 -1.28955,2.579104 -0.85971,0.429851 -2.72239,0.429851 -6.59105,0 -12.32239,4.656717 -4.29851,3.438806 -5.22985,6.304477 l -1.28955,8.525374 q -0.28657,1.86269 -2.65075,1.86269 -2.22089,0 -2.5791,-2.43582 l 3.65373,-21.922393 q 0.35821,-2.292537 2.50746,-2.292537 2.50746,0 2.50746,2.722388 l -0.64477,4.01194 q 3.9403,-3.653731 7.3791,-4.871642 4.37015,-1.576119 9.95821,-1.576119 2.72239,0 2.72239,2.00597 z"
       style="font-weight:bold;font-size:72px;font-family:TSCu_Comic;-inkscape-font-specification:'TSCu_Comic, Bold';white-space:pre;fill:#ffffff;stroke:#000000;stroke-width:0px;stroke-linecap:round;stroke-linejoin:round;filter:url(#filter6054)"
       id="path908" />
    <path
       d="m 386.23801,84.234631 q -4.01194,12.250746 -4.01194,21.922389 0,2.14925 -2.43582,2.43582 -1.21791,0 -2.00597,-0.93134 -0.71642,-0.85971 -0.71642,-2.07762 -2.36418,2.86568 -8.38209,2.86568 -4.08358,0 -7.45075,-2.86568 -3.9403,-3.36716 -3.9403,-8.668652 0,-6.591045 5.15821,-10.889553 4.87164,-4.083582 11.60597,-4.083582 3.29552,0 4.29851,0.78806 0.71642,0.501492 0.71642,1.791045 0,1.002985 -0.57314,1.791044 -0.64477,0.644777 -2.36418,0.644777 -5.22985,0 -9.02686,2.220895 -4.58508,2.722388 -4.58508,7.59403 0,3.582086 2.36418,5.229846 1.64776,1.14627 3.9403,1.14627 4.51343,0 8.38209,-3.08059 2.07761,-11.534332 3.65373,-15.331347 1.14627,-2.79403 2.93732,-2.79403 2.29253,0 2.43582,2.292538 z"
       style="font-weight:bold;font-size:72px;font-family:TSCu_Comic;-inkscape-font-specification:'TSCu_Comic, Bold';white-space:pre;fill:#ffffff;stroke:#000000;stroke-width:0px;stroke-linecap:round;stroke-linejoin:round;filter:url(#filter6054)"
       id="path910" />
    <path
       d="m 415.32444,84.807765 q 0,1.146269 -0.71641,1.791045 -0.71642,0.859701 -1.86269,0.859701 l -2.29254,-0.716418 q -2.22089,-0.573134 -4.15522,-0.573134 -5.51642,0 -9.67164,4.298507 -3.72538,3.868657 -3.72538,8.023881 0,2.005973 1.3612,3.367163 1.36119,1.28955 3.65373,1.28955 3.51045,0 6.08955,-1.36119 l 5.73134,-2.865672 q 2.43583,0 2.43583,2.507462 0,2.5791 -5.80299,4.94328 -5.01493,1.93433 -8.16716,1.93433 -4.37015,0 -7.37911,-2.65074 -3.00895,-2.65075 -3.00895,-7.020899 0,-6.519403 4.72835,-11.677612 5.44478,-5.874627 14.0418,-5.874627 3.36716,0 6.01791,1.21791 2.72238,1.146269 2.72238,2.507463 z"
       style="font-weight:bold;font-size:72px;font-family:TSCu_Comic;-inkscape-font-specification:'TSCu_Comic, Bold';white-space:pre;fill:#ffffff;stroke:#000000;stroke-width:0px;stroke-linecap:round;stroke-linejoin:round;filter:url(#filter6054)"
       id="path912" />
    <path
       d="m 442.83478,106.15702 q 0,0.93134 -0.93134,1.79104 -0.8597,0.93135 -1.79105,0.93135 -0.35821,0 -7.3791,-8.38209 -7.73732,-9.09851 -8.16717,-9.600003 l -2.5791,15.546273 q 0,1.79104 -2.65075,2.14925 -1.07462,0 -1.7194,-0.71642 -0.71642,-0.64477 -0.71642,-1.86268 l 7.09254,-42.340304 q 0.14328,-1.002985 0.78806,-1.432835 0.50149,-0.429851 1.79104,-0.429851 0.85971,0 1.64777,0.716418 0.8597,0.716418 0.93134,1.576119 l -3.58209,20.561194 q 3.9403,-1.791045 10.60298,-5.301492 1.79105,-0.931344 3.0806,-1.146269 0.8597,0 1.57612,0.931343 0.71642,0.859702 0.71642,1.791045 0.0716,3.080597 -12.25075,7.59403 2.72239,2.722388 4.22687,4.441791 1.50448,1.719403 4.44179,5.444776 4.87164,6.232835 4.87164,7.737315 z"
       style="font-weight:bold;font-size:72px;font-family:TSCu_Comic;-inkscape-font-specification:'TSCu_Comic, Bold';white-space:pre;fill:#ffffff;stroke:#000000;stroke-width:0px;stroke-linecap:round;stroke-linejoin:round;filter:url(#filter6054)"
       id="path914" />
    <path
       d="m 471.77793,102.07344 q 0,2.65074 -6.59104,4.8 -5.44478,1.7194 -8.95523,1.7194 -11.24776,0 -11.24776,-9.814926 0,-6.304478 4.29851,-11.462686 4.87164,-5.946269 12.03582,-5.946269 4.58507,0 7.3791,1.862686 2.79403,1.862687 2.79403,4.226866 0,4.298508 -8.45373,8.668657 -7.09253,3.653731 -9.67164,3.653731 -2.00597,0 -2.00597,-2.435821 0,-0.788059 7.52239,-3.868656 7.59403,-3.152239 7.59403,-5.229851 0,-0.859702 -1.14627,-1.57612 -1.28955,-0.501492 -4.01194,-0.501492 -5.37313,0 -8.52537,3.797015 -2.86567,3.510448 -2.86567,8.668657 0,2.507459 1.43283,3.868659 1.43284,1.36119 4.58508,1.36119 3.58209,0 6.66268,-1.43283 l 6.87761,-3.223885 q 2.29254,0 2.29254,2.865675 z"
       style="font-weight:bold;font-size:72px;font-family:TSCu_Comic;-inkscape-font-specification:'TSCu_Comic, Bold';white-space:pre;fill:#ffffff;stroke:#000000;stroke-width:0px;stroke-linecap:round;stroke-linejoin:round;filter:url(#filter6054)"
       id="path916" />
    <path
       d="m 501.43753,84.091347 q 0,2.00597 -1.28956,2.579104 -0.8597,0.429851 -2.72238,0.429851 -6.59105,0 -12.32239,4.656717 -4.29851,3.438806 -5.22985,6.304477 l -1.28956,8.525374 q -0.28656,1.86269 -2.65074,1.86269 -2.2209,0 -2.57911,-2.43582 l 3.65374,-21.922393 q 0.3582,-2.292537 2.50746,-2.292537 2.50746,0 2.50746,2.722388 l -0.64478,4.01194 q 3.9403,-3.653731 7.37911,-4.871642 4.37015,-1.576119 9.95821,-1.576119 2.72239,0 2.72239,2.00597 z"
       style="font-weight:bold;font-size:72px;font-family:TSCu_Comic;-inkscape-font-specification:'TSCu_Comic, Bold';white-space:pre;fill:#ffffff;stroke:#000000;stroke-width:0px;stroke-linecap:round;stroke-linejoin:round;filter:url(#filter6054)"
       id="path918" />
  </g>
</svg>
