<?xml version="1.0" encoding="utf-8"?>
<svg viewBox="0 0 500 500" xmlns="http://www.w3.org/2000/svg">
  <defs>
    <linearGradient gradientUnits="userSpaceOnUse" x1="242.356" y1="80.832" x2="242.356" y2="421.273" id="gradient-0">
      <stop offset="0" style="stop-color: rgba(120, 54, 161, 1)"/>
      <stop offset="1" style="stop-color: rgba(63, 28, 85, 1)"/>
    </linearGradient>
  </defs>
  <line style="stroke-width: 0px; stroke: rgb(240, 198, 70);" x1="14.346" y1="250" x2="485.654" y2="250"/>
  <line style="stroke-width: 0px; stroke: rgb(240, 198, 70);" x1="251.009" y1="-0.063" x2="248.991" y2="500.063"/>
  <line style="stroke-width: 0px; stroke: rgb(240, 198, 70);" x1="250" y1="-0.384" x2="250" y2="500.385"/>
  <line style="stroke-width: 0px; stroke: rgb(240, 198, 70);" x1="24.275" y1="250" x2="475.724" y2="250"/>
  <line style="stroke-width: 0px; stroke: rgb(240, 198, 70);" x1="18.698" y1="250" x2="481.302" y2="250"/>
  <line style="stroke-width: 0px; stroke: rgb(240, 198, 70);" x1="136.849" y1="-7.849" x2="363.151" y2="507.85"/>
  <line style="stroke-width: 0px; stroke: rgb(240, 198, 70);" x1="136.848" y1="421.938" x2="363.151" y2="78.061" transform="matrix(-1, 0, 0, -1, 499.999008, 499.998978)"/>
  <line style="stroke-width: 0px; stroke: rgb(240, 198, 70);" x1="21.659" y1="250" x2="478.341" y2="250"/>
  <g transform="matrix(1, 0, 0, 1.199891, 7.643806, -51.235432)" style="">
    <path style="fill: none; stroke-linecap: round; stroke-linejoin: round; stroke-width: 50px; stroke: url(#gradient-0);" d="M 44.654 134.217 C 127.154 62.755 355.946 63.319 438.271 134.217 M 241.399 419.168 L 240.835 86.578 M 242.482 420.478 C 242.92 334.938 142.563 228.906 44.169 231.209 M 242.23 421.273 C 241.792 335.733 342.149 229.701 440.543 232.004"/>
  </g>
</svg>