<?xml version="1.0" encoding="utf-8"?>
<svg viewBox="7.644 31.087 500 83.635" xmlns="http://www.w3.org/2000/svg">
  <defs>
    <linearGradient gradientUnits="userSpaceOnUse" x1="48.188" y1="40.906" x2="48.188" y2="104.862" id="gradient-0">
      <stop offset="0" style="stop-color: rgba(120, 54, 161, 1)"/>
      <stop offset="1" style="stop-color: rgba(63, 28, 85, 1)"/>
    </linearGradient>
    <linearGradient gradientUnits="userSpaceOnUse" x1="280.828" y1="49.063" x2="280.828" y2="120.422" id="gradient-1" gradientTransform="matrix(1, 0, 0, 1, -8.663641, 9.173275)">
      <stop offset="0" style="stop-color: rgba(120, 54, 161, 1)"/>
      <stop offset="1" style="stop-color: rgba(63, 28, 85, 1)"/>
    </linearGradient>
  </defs>
  <line style="stroke-width: 0px; stroke: rgb(110, 47, 75);" x1="14.346" y1="250" x2="485.654" y2="250"/>
  <line style="stroke-width: 0px; stroke: rgb(110, 47, 75);" x1="251.009" y1="-0.063" x2="248.991" y2="500.063"/>
  <line style="stroke-width: 0px; stroke: rgb(110, 47, 75);" x1="250" y1="-0.384" x2="250" y2="500.385"/>
  <line style="stroke-width: 0px; stroke: rgb(110, 47, 75);" x1="24.275" y1="250" x2="475.724" y2="250"/>
  <line style="stroke-width: 0px; stroke: rgb(110, 47, 75);" x1="18.698" y1="250" x2="481.302" y2="250"/>
  <line style="stroke-width: 0px; stroke: rgb(110, 47, 75);" x1="136.849" y1="-7.849" x2="363.151" y2="507.85"/>
  <line style="stroke-width: 0px; stroke: rgb(110, 47, 75);" x1="136.848" y1="421.938" x2="363.151" y2="78.061" transform="matrix(-1, 0, 0, -1, 499.999008, 499.998978)"/>
  <line style="stroke-width: 0px; stroke: rgb(110, 47, 75);" x1="21.659" y1="250" x2="478.341" y2="250"/>
  <path d="M 48.038 104.467 L 47.95 41.985 M 17.234 50.935 C 30.151 37.51 65.972 37.616 78.862 50.935 M 48.208 104.713 C 48.276 88.644 32.564 68.724 17.158 69.156 M 48.168 104.862 C 48.1 88.792 63.813 68.873 79.217 69.305" style="stroke-linejoin: round; stroke-linecap: round; paint-order: fill; stroke-width: 10px; stroke: url(#gradient-0); fill: none;"/>
  <text style="fill: url(#gradient-1); font-family: TSCu_Comic; font-size: 72px; font-weight: 700; stroke: rgb(134, 72, 99); stroke-linecap: round; stroke-linejoin: round; stroke-width: 0px; white-space: pre;" x="86.346" y="107.16">VersionTracker</text>
</svg>
